<?xml version="1.0" standalone="no"?><!DOCTYPE svg PUBLIC "-//W3C//DTD SVG 1.1//EN" "http://www.w3.org/Graphics/SVG/1.1/DTD/svg11.dtd"><svg width="24" height="24" viewBox="0 0 24 24" xmlns="http://www.w3.org/2000/svg" xmlns:xlink="http://www.w3.org/1999/xlink"><svg class="aicon" viewBox="0 0 1024 1024" width="24" height="24" id="L1VzZXJzL3RvcC90b3AvZXMtc3R5bGUvZXhhbXBsZXMvc3NyL3NyYy9iZy5zdmc=" xmlns="http://www.w3.org/2000/svg"><defs><style/></defs><path d="M126.1 869.7h770.7v78.8H126.1z" fill="#EF9D3C"/><path d="M126.1 920.4h770.7v28.2H126.1z" fill="#E2771E"/><path d="M511.5 77.6c-179.4 0-324.9 142.9-324.9 319.1v473h649.8v-473c0-176.3-145.5-319.1-324.9-319.1z" fill="#CCC"/><path d="M896.8 855.6h-46.3V396.7c0-183.7-152.1-333.2-339.1-333.2-71.2 0-139.4 21.4-197.1 62-6.4 4.5-7.9 13.3-3.4 19.6 4.5 6.4 13.4 7.9 19.7 3.4 52.9-37.2 115.4-56.9 180.7-56.9 171.3 0 310.7 136.8 310.7 305v458.9H200.7V396.7c0-77.5 29.7-151.4 83.5-208.1 5.4-5.7 5.1-14.6-.6-19.9-5.7-5.3-14.7-5.1-20 .6-58.9 61.9-91.3 142.7-91.3 227.4v458.9H126c-7.8 0-14.2 6.3-14.2 14.1v78.8c0 7.8 6.3 14.1 14.2 14.1h589.4c7.8 0 14.2-6.3 14.2-14.1s-6.3-14.1-14.2-14.1H140.3v-50.7h742.4v50.7h-91.6c-7.8 0-14.2 6.3-14.2 14.1s6.3 14.1 14.2 14.1h105.8c7.8 0 14.2-6.3 14.2-14.1v-78.8c-.1-7.8-6.4-14.1-14.3-14.1z"/><path d="M214.9 841.5V396.7c0-160.4 133-290.9 296.6-290.9s296.6 130.5 296.6 290.9v444.9H214.9z" fill="#E5E5E5"/><path d="M243.2 442.6c-7.8 0-14.2 6.3-14.2 14.1v356.6c0 7.8 6.3 14.1 14.2 14.1h230.5c7.8 0 14.2-6.3 14.2-14.1V456.7c0-7.8-6.3-14.1-14.2-14.1H243.2zm268.3-322.8c-155.7 0-282.4 124.2-282.4 276.9 0 7.8 6.3 14.1 14.2 14.1h536.5c7.8 0 14.2-6.3 14.2-14.1-.1-152.7-126.8-276.9-282.5-276.9zm268.2 322.8H549.3c-7.8 0-14.2 6.3-14.2 14.1v356.6c0 7.8 6.3 14.1 14.2 14.1h230.5c7.8 0 14.2-6.3 14.2-14.1V456.7c-.1-7.8-6.5-14.1-14.3-14.1z"/><path d="M687.9 217.9L523.5 382.6h139.6l82.3-82.9c-13.4-31-33.1-58.8-57.5-81.8zm-176.4-70c-135.3 0-246.2 104-253.7 234.6h144.7l212.1-213.2c-31.5-13.7-66.4-21.4-103.1-21.4z" fill="#62C9CC"/><path d="M745.5 299.7l-82.3 82.9h102c-1.7-29.3-8.6-57.2-19.7-82.9zM614.6 169.4L402.5 382.6h121l164.4-164.7c-21.2-20.1-46-36.6-73.3-48.5z" fill="#FFF"/><path d="M765.6 470.8H563.4v244L765.6 514zM563.4 799.3h202.2V579.7L563.4 780.5z" fill="#62C9CC"/><path d="M563.4 714.8v65.7l202.2-200.8V514z" fill="#FFF"/><path d="M257.4 799.3h202.1V580.6L257.4 781.5zm202.1-328.5H257.4v245l202.1-200.9z" fill="#62C9CC"/><path d="M257.4 715.8v65.7l202.1-200.9v-65.7z" fill="#FFF"/></svg></svg>